<svg width="19.500000" height="21.212097" viewBox="0 0 19.5 21.2121" fill="none" xmlns="http://www.w3.org/2000/svg" xmlns:xlink="http://www.w3.org/1999/xlink">
	<desc>
			Created with Pixso.
	</desc>
	<defs/>
	<path id="path" d="M9.26 20.33L1.26 15.89C0.94 15.71 0.75 15.38 0.75 15.01L0.75 6.19C0.75 5.83 0.94 5.49 1.26 5.32L9.26 0.87C9.56 0.7 9.93 0.7 10.23 0.87L18.23 5.32C18.55 5.49 18.75 5.83 18.75 6.19L18.75 15.01C18.75 15.38 18.55 15.71 18.23 15.89L10.23 20.33C9.93 20.5 9.56 20.5 9.26 20.33Z" fill="#6F6D72" fill-opacity="1.000000" fill-rule="nonzero"/>
	<path id="path" d="M1.26 15.89C0.94 15.71 0.75 15.38 0.75 15.01L0.75 6.19C0.75 5.83 0.94 5.49 1.26 5.32L9.26 0.87C9.56 0.7 9.93 0.7 10.23 0.87L18.23 5.32C18.55 5.49 18.75 5.83 18.75 6.19L18.75 15.01C18.75 15.38 18.55 15.71 18.23 15.89L10.23 20.33C9.93 20.5 9.56 20.5 9.26 20.33L1.26 15.89Z" stroke="#6F6D72" stroke-opacity="1.000000" stroke-width="1.500000"/>
</svg>
